<svg xmlns="http://www.w3.org/2000/svg" viewBox="0 0 24 24" role="img">
  <path fill="#5865f2" d="M19.54 5.34A16.3 16.3 0 0 0 15.45 4c-.18.33-.39.78-.53 1.14a15 15 0 0 0-4.53 0A12 12 0 0 0 9.86 4a16.2 16.2 0 0 0-4.1 1.35C3.17 9.46 2.46 13.46 2.82 17.4a16.4 16.4 0 0 0 5.02 2.7c.4-.58.76-1.2 1.08-1.86a10.6 10.6 0 0 1-1.69-.87l.42-.34c3.27 1.6 6.82 1.6 10.05 0l.42.34c-.54.34-1.11.63-1.7.87.31.66.67 1.28 1.07 1.86a16.3 16.3 0 0 0 5.03-2.7c.41-4.58-.7-8.55-2.98-12.06ZM9.15 14.97c-1 0-1.8-.96-1.8-2.13 0-1.16.8-2.12 1.8-2.12 1.01 0 1.82.96 1.8 2.12 0 1.17-.8 2.13-1.8 2.13Zm6.7 0c-1 0-1.8-.96-1.8-2.13 0-1.16.79-2.12 1.8-2.12s1.82.96 1.8 2.12c0 1.17-.8 2.13-1.8 2.13Z"/>
</svg>
