<svg xmlns="http://www.w3.org/2000/svg" viewBox="0 0 30 20" role="img" aria-labelledby="title">
  <title id="title">Bandera de Ecuador</title>
  <rect width="30" height="10" fill="#fcd116"/>
  <rect y="10" width="30" height="5" fill="#003893"/>
  <rect y="15" width="30" height="5" fill="#ce1126"/>
  <g transform="translate(15 10)">
    <ellipse cy="-3.15" rx="2.35" ry=".85" fill="#6b3f22"/>
    <path d="M-2.35-2.7h4.7l-.45 5.1L0 3.75l-1.9-1.35z" fill="#66a4c8" stroke="#8a5a22" stroke-width=".45"/>
    <path d="M-1.9.2C-.85-.55.45-.6 1.9.2v2.2L0 3.75l-1.9-1.35z" fill="#f3cf43"/>
    <path d="M-2.7 4.35C-1.5 3.65-1 3.25 0 3.75c1-.5 1.5-.1 2.7.6" fill="none" stroke="#4e8b3e" stroke-width=".7" stroke-linecap="round"/>
    <path d="M-3-3.7C-2.1-5.15-.9-5.55 0-5.8c.9.25 2.1.65 3 2.1" fill="none" stroke="#6b3f22" stroke-width=".65" stroke-linecap="round"/>
  </g>
</svg>
