<svg xmlns="http://www.w3.org/2000/svg" viewBox="0 0 24 24" role="img">
  <circle cx="12" cy="12" r="11" fill="#ffffff"/>
  <path fill="#181717" d="M12 2C6.477 2 2 6.588 2 12.253c0 4.532 2.865 8.378 6.839 9.735.5.095.682-.222.682-.494 0-.244-.009-.888-.014-1.743-2.782.619-3.369-1.377-3.369-1.377-.455-1.185-1.11-1.5-1.11-1.5-.908-.638.069-.625.069-.625 1.004.073 1.532 1.057 1.532 1.057.892 1.568 2.341 1.115 2.91.853.091-.663.349-1.115.635-1.371-2.221-.259-4.555-1.139-4.555-5.067 0-1.119.389-2.033 1.029-2.75-.103-.26-.446-1.302.098-2.713 0 0 .84-.276 2.75 1.05A9.36 9.36 0 0 1 12 6.962a9.4 9.4 0 0 1 2.504.346c1.909-1.326 2.748-1.05 2.748-1.05.545 1.411.202 2.453.1 2.713.64.717 1.027 1.631 1.027 2.75 0 3.938-2.338 4.805-4.566 5.058.359.317.679.943.679 1.9 0 1.372-.012 2.477-.012 2.815 0 .274.18.594.688.493C19.139 20.626 22 16.782 22 12.253 22 6.588 17.523 2 12 2Z"/>
</svg>
